PathFileType	4	(X/Y/Z)	E:\3-PhD\Data\MocapData\ElaboratedData\009\pre\dynamicElaborations\RunN3\RunN3.trc
DataRate	CameraRate	NumFrames	NumMarkers	Units	OrigDataRate	DataStartFrame
200	200	6	54	mm	200	4.530000e+02
Frame#	Time	FHD			LBHD			RBHD			C7			T10			CLAV			LSHO			LUUPA			LMUPA			LDUPA			LLEP			LMEP			LRAD			LUL			LRFIN			RSHO			RUPA1			RMUPA			RDUPA			RLEP			RMEP			RRAD			RUL			RUFIN			RASI			USACR			LSACR			RSACR			LTHI1			LTHI2			LTHI3			LTHI4			LTIB1			LTIB2			LTIB3			LTIB4			LLMAL			LHEE			LMT1			LMT2			RTHI			RTHI2			RTHI3			RTHI4			RLFC			RTIB1			RTIB2			RTIB3			RTIB4			RLMAL			RHEE			RMT1			RMT2			RMT5		
		X1	Y1	Z1	X2	Y2	Z2	X3	Y3	Z3	X4	Y4	Z4	X5	Y5	Z5	X6	Y6	Z6	X7	Y7	Z7	X8	Y8	Z8	X9	Y9	Z9	X10	Y10	Z10	X11	Y11	Z11	X12	Y12	Z12	X13	Y13	Z13	X14	Y14	Z14	X15	Y15	Z15	X16	Y16	Z16	X17	Y17	Z17	X18	Y18	Z18	X19	Y19	Z19	X20	Y20	Z20	X21	Y21	Z21	X22	Y22	Z22	X23	Y23	Z23	X24	Y24	Z24	X25	Y25	Z25	X26	Y26	Z26	X27	Y27	Z27	X28	Y28	Z28	X29	Y29	Z29	X30	Y30	Z30	X31	Y31	Z31	X32	Y32	Z32	X33	Y33	Z33	X34	Y34	Z34	X35	Y35	Z35	X36	Y36	Z36	X37	Y37	Z37	X38	Y38	Z38	X39	Y39	Z39	X40	Y40	Z40	X41	Y41	Z41	X42	Y42	Z42	X43	Y43	Z43	X44	Y44	Z44	X45	Y45	Z45	X46	Y46	Z46	X47	Y47	Z47	X48	Y48	Z48	X49	Y49	Z49	X50	Y50	Z50	X51	Y51	Z51	X52	Y52	Z52	X53	Y53	Z53	X54	Y54	Z54	

483	2.410000	14.575364	1449.358148	895.904428	-96.769021	1442.597267	734.141662	-126.165623	1433.909281	859.370095	-174.522358	1325.187494	762.045435	-355.050442	1032.534558	679.593263	-87.239762	1185.261819	790.400318	-57.062709	1277.023288	666.659994	-47.110382	1162.360009	509.206831	-8.637036	1135.369350	519.388977	-28.732080	1107.303457	470.480661	-5.658329	1004.073637	413.813259	-37.781668	949.711942	460.971789	152.948169	1028.111712	617.472278	197.283322	993.149636	568.552074	210.211481	1077.655471	629.739291	-182.984070	1249.310932	936.292440	-359.476011	1204.539904	947.826927	-369.953511	1158.668848	943.326638	-426.735340	1187.992420	939.709468	-548.498192	1128.642283	907.815593	-537.735581	1135.489492	833.732121	-465.279286	879.980344	872.861269	-537.650572	870.876858	880.819273	-463.058852	829.314259	929.789664	-242.379819	808.520330	763.579221	-391.518485	935.168569	653.761379	-387.155295	914.745465	616.892038	-402.328437	895.479015	669.841449	-263.410193	704.431252	375.968474	-253.410129	625.402493	346.991339	-215.964920	605.527825	367.095770	-294.702664	589.167628	319.335577	-380.648789	324.460312	209.344577	-436.336498	354.041425	147.074424	-414.050131	319.575013	162.092163	-463.171979	250.884822	143.900774	-583.471726	192.580981	50.407695	-675.865628	199.704189	68.479698	-526.947408	43.365552	75.330086	-517.687236	59.742960	33.036103	-202.765880	596.744686	824.640331	-143.107051	586.580768	848.219581	-121.314949	612.597142	855.359114	-91.007869	520.786556	825.053861	4.189557	470.269508	828.528048	178.673241	335.272838	797.665906	161.756372	232.679943	771.268103	203.041076	253.204874	783.442025	251.840459	237.557152	758.314038	262.008569	126.169770	728.328789	262.834040	99.089682	637.709066	430.602535	174.921735	770.214724	414.572232	148.965723	796.211641	377.894945	87.477708	803.048083	
484	2.415000	36.148710	1451.881476	909.712592	-75.594039	1444.735988	748.263350	-104.553313	1436.294561	873.595626	-152.364999	1326.734432	775.124736	-329.068064	1032.972958	688.943841	-64.539209	1187.390286	803.777518	-33.618244	1279.219136	679.857298	-24.371146	1165.924918	521.481475	13.712133	1138.311274	531.301405	-6.698895	1111.161550	482.141755	15.096440	1008.454887	423.764076	-17.781294	953.786992	470.377233	176.085846	1025.850742	626.954856	219.290744	991.010301	576.575114	233.854597	1074.109410	639.504209	-161.800413	1249.937096	948.956839	-338.201714	1205.660437	957.756965	-348.699883	1159.941682	952.790720	-405.287244	1189.515702	948.340158	-526.567867	1130.311226	914.195466	-514.214465	1136.945602	840.189388	-438.883396	882.355898	881.973759	-511.259393	872.174761	888.791686	-437.296839	832.005886	939.746194	-216.704385	808.727632	772.882685	-365.005832	936.351634	662.568100	-360.523846	916.087613	625.578244	-376.246000	896.588134	678.164218	-238.852977	706.093782	385.660113	-230.775578	626.571108	357.100224	-194.058532	605.678701	377.432778	-272.923133	591.345003	329.229422	-365.436608	329.059405	218.382981	-421.364715	359.507134	156.768519	-399.067911	324.817581	171.183960	-448.563993	256.496430	152.407640	-570.179667	199.839560	59.219685	-660.664221	210.957686	81.291263	-523.472324	44.236377	78.447605	-514.381444	61.639285	36.358688	-176.925794	595.913204	831.574179	-116.919426	585.458573	854.410990	-94.703685	611.142245	860.806401	-65.819711	518.851158	830.830410	28.797495	467.980197	833.911113	202.745020	332.153201	802.506984	185.777786	229.680953	776.076476	227.088360	250.069242	788.412646	275.970962	234.344328	763.472814	285.972106	122.846489	733.077769	286.948992	96.480854	642.564399	455.071447	170.161556	775.450510	438.888161	144.049741	801.244416	401.612156	82.883604	807.967513	
485	2.420000	57.555528	1454.248520	923.478404	-54.552231	1446.756444	762.311431	-83.084936	1438.462453	887.727121	-130.265239	1328.082656	788.156145	-303.183725	1033.315267	698.474503	-41.814062	1189.310857	816.953859	-10.257172	1281.242538	692.870895	-1.764967	1169.297206	533.671880	35.843727	1140.974904	543.136630	15.093101	1114.819837	493.716083	35.371952	1012.643666	433.513778	1.734957	957.701293	479.609606	199.096878	1023.212079	635.738749	241.022877	988.474739	583.814976	257.437791	1070.081354	648.410769	-140.487766	1250.326346	961.536929	-316.732739	1206.232987	967.871181	-327.194813	1160.660050	962.394442	-383.591357	1190.390546	957.217774	-504.345930	1131.228849	920.986812	-490.509869	1137.621617	847.055020	-412.241064	884.030113	891.713955	-484.599687	872.762492	897.460488	-411.148189	834.004021	950.249503	-191.008264	808.850482	782.341172	-338.545453	937.476494	671.750065	-334.015681	917.360356	634.644460	-350.184584	897.651137	686.896842	-214.090879	707.611172	395.319483	-207.560164	627.779459	366.982696	-171.459156	606.080564	387.538873	-250.367727	593.386809	338.937625	-348.708354	333.568245	227.130611	-405.261758	364.880815	166.680894	-382.826696	329.999625	180.244643	-432.716820	262.005909	161.036233	-555.924725	207.027721	68.750502	-644.057228	221.952327	95.386292	-519.047035	46.033021	82.281920	-510.361883	64.246962	40.252176	-151.130959	595.249024	838.814205	-90.826040	584.519173	860.957405	-68.216236	609.897018	866.655604	-40.678070	517.139606	837.047878	53.207856	465.741895	839.755896	226.008147	328.421503	806.664185	208.431630	226.242280	779.922633	249.883871	246.288597	792.357043	298.662193	230.359372	767.364154	307.786736	118.873444	736.254373	308.571338	93.520346	645.674275	477.613375	163.842605	778.741744	461.191984	137.645349	804.331916	422.987939	77.053987	810.922568	
486	2.425000	78.789151	1456.457523	937.176098	-33.622587	1448.626692	776.243291	-61.761016	1440.382552	901.723844	-108.193656	1329.221946	801.107474	-277.431263	1033.561038	708.170124	-19.054949	1191.005284	829.917585	13.032394	1283.068096	705.689261	20.703037	1172.460772	545.744024	57.763841	1143.359463	554.867486	36.655587	1118.261759	505.179608	55.211758	1016.641180	443.055671	20.820369	961.451596	488.660331	221.996341	1020.199647	643.746208	262.500761	985.581215	590.226967	280.978943	1065.597590	656.403080	-119.051037	1250.485808	974.007427	-295.085003	1206.264642	978.149205	-305.445879	1160.821844	972.151211	-361.681019	1190.604207	966.360394	-481.850098	1131.321593	928.225187	-466.670066	1137.454854	854.369229	-385.371708	884.963862	902.063992	-457.679649	872.596106	906.857324	-384.520886	835.240183	961.182204	-165.301441	808.887367	791.920724	-312.182544	938.531648	681.296597	-307.667667	918.554255	644.083630	-324.166365	898.652624	696.046627	-189.206062	708.952767	404.938923	-183.843599	628.977501	376.633093	-148.209051	606.686238	397.365592	-227.129591	595.239187	348.451333	-330.526569	337.876222	235.566362	-388.056137	370.099936	176.787262	-365.384743	335.049851	189.247816	-415.732393	267.375164	169.771074	-540.790354	214.219304	78.969534	-626.157553	232.697300	110.544673	-513.523043	48.874690	86.989394	-505.508763	67.682165	44.904141	-125.411624	594.712408	846.287384	-64.873958	583.678437	867.784068	-41.907849	608.776877	872.911559	-15.635771	515.592310	843.590072	77.382403	463.439949	845.892223	248.497915	324.055337	810.095310	229.804952	222.310685	782.829296	271.502508	241.845773	795.283840	319.987189	225.599678	770.002237	327.575732	114.258930	737.977193	327.734855	90.130565	647.180239	498.377294	156.037009	779.938371	481.680339	129.884924	805.375876	442.223258	70.179207	811.963798	
487	2.430000	99.845440	1458.507715	950.780165	-12.785163	1450.314067	790.020183	-40.580886	1442.030634	915.549268	-86.125104	1330.152881	813.950241	-251.830487	1033.708278	718.018221	3.742660	1192.467666	842.668528	36.259308	1284.675703	718.299917	43.018407	1175.402524	557.657525	79.470815	1145.467866	566.463061	57.993550	1121.471894	516.503531	74.653648	1020.450726	452.387753	39.523796	965.039141	497.523683	244.778955	1016.827024	650.910450	283.733262	982.369875	595.764199	304.486836	1060.690588	663.418785	-97.490194	1250.423001	986.350396	-273.263854	1205.759744	988.572535	-283.452443	1160.422810	982.070173	-339.575926	1190.144516	975.776808	-459.094231	1130.527571	935.942111	-442.730800	1136.390797	862.164026	-358.287302	885.128125	913.003764	-430.500805	871.642408	916.996404	-357.364201	835.677111	972.478190	-139.595069	808.841592	801.588896	-285.956711	939.501717	691.182574	-281.502396	919.654212	653.876132	-298.209990	899.573474	705.604217	-164.260801	710.088610	414.514392	-159.695349	630.112059	386.062302	-124.349970	607.443669	406.889030	-203.298857	596.836992	357.797407	-310.984219	341.892598	243.734429	-369.765812	375.124920	187.081333	-346.807966	339.916011	198.212723	-397.723818	272.595749	178.640547	-524.857253	221.513923	89.862311	-607.126782	243.232218	126.520727	-506.775563	52.839348	92.731971	-499.676715	72.039755	50.531243	-99.807459	594.229498	853.917401	-39.115231	582.816555	874.808142	-15.833062	607.653024	879.556304	9.233921	514.103910	850.336725	101.279875	460.938850	852.136831	270.239901	319.052603	812.761158	249.985891	217.859271	784.815675	292.012305	236.753927	797.204591	340.016199	220.101325	771.418880	345.481084	109.055761	738.367723	344.514226	86.253949	647.254490	517.491509	146.920657	778.953994	500.524946	121.021195	804.342564	459.506436	62.584053	811.226225	
488	2.435000	120.722835	1460.398672	964.266785	7.978155	1451.788089	803.607763	-19.543159	1443.389244	929.170517	-64.042785	1330.884942	826.660684	-226.392789	1033.753602	728.004767	26.579812	1193.705124	855.215658	59.428924	1286.052177	730.690209	65.160746	1178.112287	569.370332	100.958240	1147.305543	577.891496	79.108460	1124.436152	527.654570	93.731955	1024.079081	461.511598	57.895657	968.470624	506.199646	267.431471	1013.119325	657.184229	304.715661	978.879303	600.392564	327.961857	1055.398483	669.394949	-75.803916	1250.147336	998.555004	-251.266929	1204.717770	999.127310	-261.207737	1159.454903	992.156410	-317.284769	1188.997264	985.468313	-436.087240	1128.801363	944.164053	-418.713951	1134.386191	870.462346	-330.993327	884.504480	924.511709	-403.059295	869.879401	927.872483	-329.670171	835.306622	984.119679	-113.905116	808.720442	811.315557	-259.899042	940.366869	701.370419	-255.530068	920.638549	663.989726	-272.332478	900.391126	715.543248	-139.290824	710.988540	424.044638	-135.168482	631.127670	395.292980	-99.921031	608.293227	416.111685	-178.951628	598.113927	367.020353	-290.190903	345.550296	251.735190	-350.387355	379.937699	197.569060	-327.158407	344.561770	207.201700	-378.801339	277.684732	187.710468	-508.197292	229.017729	101.428017	-587.163842	253.618672	143.066652	-498.705949	57.958861	99.665341	-492.691242	77.389677	57.339516	-74.371820	593.691522	861.634225	-13.609735	581.782598	881.949586	9.953870	606.356582	886.549223	33.842117	512.533813	857.170556	124.852427	458.106409	858.317444	291.255568	313.444769	814.626927	269.066500	212.898708	785.894947	311.478119	231.066793	798.131517	358.818022	213.943497	771.650292	361.656110	103.367802	737.538110	359.030801	81.870074	646.078181	535.053074	136.760530	775.794186	517.852153	111.413750	801.289120	474.987368	54.712912	808.927807	
